<?xml version="1.0" encoding="UTF-8" standalone="no"?>
<svg
   xmlns:dc="http://purl.org/dc/elements/1.1/"
   xmlns:cc="http://creativecommons.org/ns#"
   xmlns:rdf="http://www.w3.org/1999/02/22-rdf-syntax-ns#"
   xmlns:svg="http://www.w3.org/2000/svg"
   xmlns="http://www.w3.org/2000/svg"
   id="svg2"
   height="240"
   width="440"
   version="1.1">
  <defs
     id="defs4" />
  <metadata
     id="metadata7">
    <rdf:RDF>
      <cc:Work
         rdf:about="">
        <dc:format>image/svg+xml</dc:format>
        <dc:type
           rdf:resource="http://purl.org/dc/dcmitype/StillImage" />
        <dc:title />
      </cc:Work>
    </rdf:RDF>
  </metadata>
  <g
     id="maintext"
     style="font-style:normal;font-weight:normal;font-size:115px;font-family:'Glacial Indifference';text-anchor:middle;fill:#ff0000"
     aria-label="18">
    <path
       id="path8"
       style="font-style:normal;font-weight:normal;font-size:115px;font-family:'Glacial Indifference';text-anchor:middle;fill:#ff0000"
       d="m 85.292969,180.03906 v 68.28125 q 0,3.59375 2.246093,5.39063 2.246094,1.79687 6.289063,1.79687 h 4.492187 v 2.69531 H 65.527344 v -2.69531 h 4.042968 q 4.492188,0 6.289063,-1.79687 2.246094,-1.79688 2.246094,-5.39063 v -54.35547 q 0,-1.79687 -1.347657,-2.69531 -0.898437,-1.34766 -3.144531,-1.34766 h -8.085937 v -2.69531 h 4.042968 q 5.390625,0 8.535157,-1.79687 3.59375,-1.79688 5.390625,-5.39063 z" />
    <path
       id="path10"
       style="font-style:normal;font-weight:normal;font-size:115px;font-family:'Glacial Indifference';text-anchor:middle;fill:#ff0000"
       d="m 121.23047,239.78516 q 0,7.1875 4.49219,11.67968 4.9414,4.49219 12.1289,4.49219 8.53516,0 12.12891,-4.49219 4.04297,-4.49218 4.04297,-11.23047 0,-5.83984 -5.39063,-11.23046 -5.39062,-5.39063 -16.17187,-9.88282 -5.39063,3.59375 -8.53516,8.98438 -2.69531,5.39062 -2.69531,11.67969 z m 39.53125,-0.89844 q 0,8.53515 -6.28906,14.375 -6.28907,5.83984 -16.6211,5.83984 -9.43359,0 -16.17187,-5.83984 -6.73828,-5.83985 -6.73828,-13.47656 0,-7.63672 3.59375,-13.02735 4.04297,-5.39062 11.23046,-9.43359 -6.28906,-3.14453 -9.88281,-7.63672 -3.14453,-4.94141 -3.14453,-10.78125 0,-7.63672 5.83985,-13.02734 5.83984,-5.39063 16.17187,-5.39063 9.43359,0 15.27344,5.39063 5.83984,5.39062 5.83984,13.02734 0,5.39062 -3.59375,10.33203 -3.14453,4.49219 -10.33203,8.08594 7.63672,4.49219 11.23047,9.88281 3.59375,5.39063 3.59375,11.67969 z m -7.1875,-39.53125 q 0,-6.28906 -3.59375,-10.78125 -3.59375,-4.94141 -11.23047,-4.94141 -8.53516,0 -12.12891,4.49219 -3.59375,4.49219 -3.59375,9.43359 0,4.94141 4.94141,9.88282 5.39062,4.49218 14.82422,8.08593 5.39062,-2.69531 8.08594,-6.73828 2.69531,-4.04297 2.69531,-9.43359 z" />
  </g>
</svg>
