<?xml version="1.0" encoding="UTF-8" standalone="no"?>
<svg
   xmlns:dc="http://purl.org/dc/elements/1.1/"
   xmlns:cc="http://creativecommons.org/ns#"
   xmlns:rdf="http://www.w3.org/1999/02/22-rdf-syntax-ns#"
   xmlns:svg="http://www.w3.org/2000/svg"
   xmlns="http://www.w3.org/2000/svg"
   id="svg2"
   height="1080"
   width="1920"
   version="1.1">
  <defs
     id="defs4" />
  <metadata
     id="metadata7">
    <rdf:RDF>
      <cc:Work
         rdf:about="">
        <dc:format>image/svg+xml</dc:format>
        <dc:type
           rdf:resource="http://purl.org/dc/dcmitype/StillImage" />
        <dc:title />
      </cc:Work>
    </rdf:RDF>
  </metadata>
  <g
     id="day"
     style="font-style:normal;font-weight:normal;font-size:36px;font-family:A-15-BIT;text-anchor:middle;fill:#ff0000"
     aria-label="06:23">
    <path
       id="path8"
       style="font-style:normal;font-weight:normal;font-size:36px;font-family:A-15-BIT;text-anchor:middle;fill:#ff0000"
       d="m 164,188.73437 q -1.96875,0 -3.375,3.09375 -1.26563,2.95313 -1.26563,8.01563 0,5.34375 1.26563,8.29687 1.40625,2.95313 3.375,2.95313 2.10937,0 3.23437,-2.95313 1.26563,-2.95312 1.26563,-8.29687 0,-5.0625 -1.125,-8.01563 -1.125,-3.09375 -3.375,-3.09375 z m 0,23.48438 q -3.09375,0 -5.20313,-3.23438 -2.10937,-3.23437 -2.10937,-9.14062 0,-5.48438 1.96875,-8.85938 2.10937,-3.375 5.34375,-3.375 3.09375,0 5.0625,3.23438 2.10937,3.23437 2.10937,9 0,5.76562 -2.10937,9.14062 -1.96875,3.23438 -5.0625,3.23438 z" />
    <path
       id="path10"
       style="font-style:normal;font-weight:normal;font-size:36px;font-family:A-15-BIT;text-anchor:middle;fill:#ff0000"
       d="m 177.35937,202.375 q 0,4.21875 1.40625,6.60937 1.54688,2.25 3.65625,2.25 2.10938,0 3.23438,-1.54687 1.125,-1.54688 1.125,-5.76563 0,-2.8125 -1.26563,-4.35937 -1.125,-1.54688 -2.8125,-1.54688 -1.54687,0 -2.95312,0.98438 -1.26563,0.84375 -2.39063,3.375 z m 5.48438,-5.76563 q 3.375,0 4.78125,2.25 1.54687,2.25 1.54687,5.0625 0,4.21875 -2.10937,6.32813 -1.96875,1.96875 -4.64063,1.96875 -3.79687,0 -5.76562,-2.8125 -1.96875,-2.95313 -1.96875,-8.4375 0,-6.46875 2.39062,-9.84375 2.39063,-3.51563 6.46875,-3.51563 1.96875,0 3.09375,1.125 1.26563,1.125 1.26563,1.96875 0,0.84375 -0.42188,1.26563 -0.28125,0.42187 -1.125,0.42187 -0.70312,0 -1.125,-0.28125 -0.28125,-0.42187 -0.28125,-1.125 0,-0.28125 0.14063,-0.5625 0,-0.28125 0,-0.5625 0,-0.5625 -0.42188,-0.84375 -0.42187,-0.42187 -1.54687,-0.42187 -2.39063,0 -4.07813,2.25 -1.6875,2.10937 -1.6875,9.42187 0.84375,-1.82812 2.25,-2.67187 1.54688,-0.98438 3.23438,-0.98438 z" />
    <path
       id="path12"
       style="font-style:normal;font-weight:normal;font-size:36px;font-family:A-15-BIT;text-anchor:middle;fill:#ff0000"
       d="m 201.6875,197.17187 q 0,0.84375 -0.5625,1.40625 -0.5625,0.5625 -1.40625,0.5625 -0.84375,0 -1.40625,-0.5625 -0.5625,-0.5625 -0.5625,-1.40625 0,-0.84375 0.5625,-1.40625 0.5625,-0.5625 1.40625,-0.5625 0.84375,0 1.40625,0.5625 0.5625,0.5625 0.5625,1.40625 z m 0,13.21875 q 0,0.84375 -0.5625,1.40625 -0.5625,0.5625 -1.40625,0.5625 -0.84375,0 -1.40625,-0.5625 -0.5625,-0.5625 -0.5625,-1.40625 0,-0.84375 0.5625,-1.40625 0.5625,-0.5625 1.40625,-0.5625 0.84375,0 1.40625,0.5625 0.5625,0.5625 0.5625,1.40625 z" />
    <path
       id="path14"
       style="font-style:normal;font-weight:normal;font-size:36px;font-family:A-15-BIT;text-anchor:middle;fill:#ff0000"
       d="m 222.07812,193.79687 q 0,-2.53125 -1.125,-3.79687 -1.125,-1.40625 -3.375,-1.40625 -1.6875,0 -2.95312,0.98437 -1.125,0.84375 -1.125,2.25 0,0.84375 0.5625,1.40625 0.42187,0.5625 0.42187,1.125 0,0.70313 -0.42187,1.125 -0.28125,0.28125 -0.98438,0.28125 -0.84375,0 -1.40625,-0.42187 -0.42187,-0.5625 -0.42187,-1.6875 0,-2.95313 2.10937,-4.5 2.10938,-1.54688 4.5,-1.54688 3.375,0 4.92188,1.6875 1.6875,1.6875 1.6875,4.21875 0,1.6875 -0.84375,3.375 -0.70313,1.6875 -2.39063,3.23438 -4.07812,3.9375 -6.32812,6.46875 -2.10938,2.39062 -2.53125,3.23437 h 8.29687 q 1.26563,0 2.10938,-0.98437 0.84375,-0.98438 1.125,-2.95313 H 224.75 l -0.84375,6.04688 h -13.07813 v -1.82813 q 0.70313,-1.26562 2.25,-3.23437 1.6875,-1.96875 4.35938,-4.64063 2.39062,-2.39062 3.51562,-4.5 1.125,-2.10937 1.125,-3.9375 z" />
    <path
       id="path16"
       style="font-style:normal;font-weight:normal;font-size:36px;font-family:A-15-BIT;text-anchor:middle;fill:#ff0000"
       d="m 242.75,205.46875 q 0,2.67187 -1.96875,4.78125 -1.96875,1.96875 -5.48438,1.96875 -2.53125,0 -4.35937,-1.40625 -1.82813,-1.40625 -1.82813,-3.23438 0,-0.84375 0.5625,-1.40625 0.5625,-0.70312 1.125,-0.70312 0.84375,0 1.125,0.70312 0.42188,0.5625 0.42188,0.98438 0,0.70312 -0.28125,1.125 -0.28125,0.5625 -0.28125,0.98437 0,0.84375 0.98437,1.40625 1.125,0.5625 2.39063,0.5625 2.53125,0 3.79687,-1.40625 1.26563,-1.54687 1.26563,-4.64062 0,-2.53125 -1.40625,-4.07813 -1.26563,-1.54687 -4.92188,-1.54687 v -0.98438 q 2.8125,0 4.07813,-1.26562 1.40625,-1.40625 1.40625,-3.79688 0,-1.96875 -1.125,-3.375 -0.98438,-1.54687 -3.23438,-1.54687 -0.98437,0 -2.10937,0.5625 -1.125,0.42187 -1.125,1.54687 0,1.125 0.28125,1.40625 0.28125,0.28125 0.28125,0.70313 0,0.70312 -0.28125,1.125 -0.28125,0.42187 -0.98438,0.42187 -0.5625,0 -1.125,-0.42187 -0.42187,-0.42188 -0.42187,-1.54688 0,-2.10937 1.82812,-3.375 1.82813,-1.40625 4.21875,-1.40625 2.8125,0 4.5,1.82813 1.6875,1.6875 1.6875,3.65625 0,2.10937 -1.125,3.65625 -0.98437,1.40625 -3.23437,2.10937 3.09375,1.125 4.21875,2.95313 1.125,1.82812 1.125,3.65625 z" />
  </g>
</svg>
