<?xml version="1.0" encoding="UTF-8" standalone="no"?>
<svg
   xmlns:dc="http://purl.org/dc/elements/1.1/"
   xmlns:cc="http://creativecommons.org/ns#"
   xmlns:rdf="http://www.w3.org/1999/02/22-rdf-syntax-ns#"
   xmlns:svg="http://www.w3.org/2000/svg"
   xmlns="http://www.w3.org/2000/svg"
   id="svg2"
   height="1080"
   width="1920"
   version="1.1">
  <defs
     id="defs4" />
  <metadata
     id="metadata7">
    <rdf:RDF>
      <cc:Work
         rdf:about="">
        <dc:format>image/svg+xml</dc:format>
        <dc:type
           rdf:resource="http://purl.org/dc/dcmitype/StillImage" />
        <dc:title />
      </cc:Work>
    </rdf:RDF>
  </metadata>
  <g
     id="day"
     style="font-style:normal;font-weight:normal;font-size:38px;font-family:GalanoGrotesqueDEMO-Bold;fill:#ff0000"
     aria-label="#23">
    <path
       id="path9"
       style="font-style:normal;font-weight:normal;font-size:38px;font-family:GalanoGrotesqueDEMO-Bold;fill:#ff0000"
       d="m 27.320312,38.171875 h -6.828125 l -0.445312,6.53125 h -1.335938 l 0.445313,-6.53125 h -2.820313 v -2.820313 h 2.96875 l 0.742188,-7.71875 H 16.335937 V 24.8125 h 3.859375 l 0.445313,-6.085938 h 1.335937 L 21.53125,24.8125 h 6.828125 l 0.445312,-6.085938 h 1.335938 L 29.695312,24.8125 h 2.820313 v 2.820312 h -2.96875 l -0.742188,7.71875 h 3.710938 v 2.820313 H 28.65625 l -0.445313,6.53125 H 26.875 Z m -6.679687,-2.820313 h 6.828125 l 0.742187,-7.71875 h -6.828125 z" />
    <path
       id="path11"
       style="font-style:normal;font-weight:normal;font-size:38px;font-family:GalanoGrotesqueDEMO-Bold;fill:#ff0000"
       d="m 47.804687,25.257812 q 0,-2.671875 -1.1875,-4.007812 -1.1875,-1.484375 -3.5625,-1.484375 -1.78125,0 -3.117187,1.039062 -1.1875,0.890625 -1.1875,2.375 0,0.890625 0.59375,1.484375 0.445312,0.59375 0.445312,1.1875 0,0.742188 -0.445312,1.1875 -0.296875,0.296875 -1.039063,0.296875 -0.890625,0 -1.484375,-0.445312 -0.445312,-0.59375 -0.445312,-1.78125 0,-3.117188 2.226562,-4.75 2.226563,-1.632813 4.75,-1.632813 3.5625,0 5.195313,1.78125 1.78125,1.78125 1.78125,4.453125 0,1.78125 -0.890625,3.5625 -0.742188,1.78125 -2.523438,3.414063 -4.304687,4.15625 -6.679687,6.828125 -2.226563,2.523437 -2.671875,3.414062 h 8.757812 q 1.335938,0 2.226563,-1.039062 0.890625,-1.039063 1.1875,-3.117188 H 50.625 L 49.734375,44.40625 H 35.929687 v -1.929688 q 0.742188,-1.335937 2.375,-3.414062 1.78125,-2.078125 4.601563,-4.898438 2.523437,-2.523437 3.710937,-4.75 1.1875,-2.226562 1.1875,-4.15625 z" />
    <path
       id="path13"
       style="font-style:normal;font-weight:normal;font-size:38px;font-family:GalanoGrotesqueDEMO-Bold;fill:#ff0000"
       d="m 69.625,37.578125 q 0,2.820312 -2.078125,5.046875 -2.078125,2.078125 -5.789063,2.078125 -2.671875,0 -4.601562,-1.484375 -1.929688,-1.484375 -1.929688,-3.414063 0,-0.890625 0.59375,-1.484375 0.59375,-0.742187 1.1875,-0.742187 0.890625,0 1.1875,0.742187 0.445313,0.59375 0.445313,1.039063 0,0.742187 -0.296875,1.1875 -0.296875,0.59375 -0.296875,1.039062 0,0.890625 1.039062,1.484375 1.1875,0.59375 2.523438,0.59375 2.671875,0 4.007812,-1.484375 1.335938,-1.632812 1.335938,-4.898437 0,-2.671875 -1.484375,-4.304688 -1.335938,-1.632812 -5.195313,-1.632812 v -1.039063 q 2.96875,0 4.304688,-1.335937 1.484375,-1.484375 1.484375,-4.007813 0,-2.078125 -1.1875,-3.5625 -1.039063,-1.632812 -3.414063,-1.632812 -1.039062,0 -2.226562,0.59375 -1.1875,0.445312 -1.1875,1.632812 0,1.1875 0.296875,1.484375 0.296875,0.296875 0.296875,0.742188 0,0.742187 -0.296875,1.1875 -0.296875,0.445312 -1.039063,0.445312 -0.59375,0 -1.1875,-0.445312 -0.445312,-0.445313 -0.445312,-1.632813 0,-2.226562 1.929687,-3.5625 1.929688,-1.484375 4.453125,-1.484375 2.96875,0 4.75,1.929688 1.78125,1.78125 1.78125,3.859375 0,2.226562 -1.1875,3.859375 -1.039062,1.484375 -3.414062,2.226562 3.265625,1.1875 4.453125,3.117188 1.1875,1.929687 1.1875,3.859375 z" />
  </g>
  <g
     id="month"
     style="font-style:normal;font-weight:normal;font-size:75px;font-family:GalanoGrotesqueDEMO-Bold;fill:#ff0000"
     aria-label="Jan.">
    <path
       id="path16"
       style="font-style:normal;font-weight:normal;font-size:75px;font-family:GalanoGrotesqueDEMO-Bold;fill:#ff0000"
       d="m 147.31934,160.82764 q 0,7.17773 -4.39454,11.05957 -4.35791,3.88183 -11.71875,3.88183 -1.75781,0 -4.6875,-0.32959 -2.92968,-0.29297 -4.90722,-0.73242 v -6.7749 h 0.40283 q 1.50147,0.51269 3.69873,1.06201 2.19727,0.54932 4.5044,0.54932 3.36914,0 5.34667,-0.76905 2.01416,-0.76904 2.96631,-2.19726 0.98877,-1.46485 1.24512,-3.58887 0.29297,-2.12402 0.29297,-4.90723 v -31.82373 h -11.53565 v -5.78613 h 18.78663 z" />
    <path
       id="path18"
       style="font-style:normal;font-weight:normal;font-size:75px;font-family:GalanoGrotesqueDEMO-Bold;fill:#ff0000"
       d="m 192.69287,175 h -6.84814 v -4.35791 q -0.91553,0.62256 -2.49024,1.75781 -1.53808,1.09864 -3.00293,1.75781 -1.72119,0.84229 -3.95508,1.39161 -2.23388,0.58593 -5.23681,0.58593 -5.52979,0 -9.375,-3.66211 -3.84522,-3.6621 -3.84522,-9.33837 0,-4.65088 1.97754,-7.50733 2.01416,-2.89307 5.71289,-4.54101 3.73535,-1.64795 8.97217,-2.23389 5.23682,-0.58594 11.24268,-0.87891 v -1.06201 q 0,-2.34375 -0.84229,-3.88183 -0.80566,-1.53809 -2.34375,-2.417 -1.46484,-0.84228 -3.51562,-1.13525 -2.05078,-0.29297 -4.28467,-0.29297 -2.70996,0 -6.04248,0.73242 -3.33252,0.6958 -6.88477,2.05078 h -0.36621 v -6.99463 q 2.01416,-0.54931 5.82276,-1.20849 3.80859,-0.65918 7.50732,-0.65918 4.32129,0 7.50732,0.73242 3.22266,0.6958 5.56641,2.41699 2.30713,1.68457 3.51562,4.35791 1.2085,2.67334 1.2085,6.62842 z m -6.84814,-10.0708 v -11.38916 q -3.14942,0.1831 -7.43409,0.54932 -4.24804,0.36621 -6.73828,1.06201 -2.96631,0.84228 -4.79736,2.63672 -1.83105,1.75781 -1.83105,4.8706 0,3.51563 2.12402,5.31006 2.12402,1.75781 6.48193,1.75781 3.62549,0 6.62842,-1.3916 3.00293,-1.42822 5.56641,-3.40576 z" />
    <path
       id="path20"
       style="font-style:normal;font-weight:normal;font-size:75px;font-family:GalanoGrotesqueDEMO-Bold;fill:#ff0000"
       d="m 240.22705,175 h -6.88476 v -23.29102 q 0,-2.81982 -0.32959,-5.27343 -0.32959,-2.49024 -1.2085,-3.88184 -0.91553,-1.53809 -2.63672,-2.27051 -1.72119,-0.76904 -4.46777,-0.76904 -2.81983,0 -5.896,1.3916 -3.07617,1.3916 -5.896,3.55225 V 175 h -6.88476 v -40.90576 h 6.88476 v 4.54101 q 3.22266,-2.67334 6.66504,-4.1748 3.44239,-1.50147 7.06787,-1.50147 6.62842,0 10.10743,3.9917 3.479,3.9917 3.479,11.49903 z" />
    <path
       id="path22"
       style="font-style:normal;font-weight:normal;font-size:75px;font-family:GalanoGrotesqueDEMO-Bold;fill:#ff0000"
       d="m 264.72656,175 h -8.75244 v -10.43701 h 8.75244 z" />
  </g>
</svg>
